<svg width="316" height="316" viewBox="0 0 316 316" fill="none" xmlns="http://www.w3.org/2000/svg">
<path d="M246.13 241.53C240.043 241.552 234.012 240.368 228.386 238.045C222.76 235.723 217.649 232.309 213.35 228L166 180.62C164.325 179.019 162.097 178.125 159.78 178.125C157.463 178.125 155.235 179.019 153.56 180.62L106.05 228.13C101.753 232.445 96.6444 235.866 91.018 238.195C85.3916 240.525 79.3594 241.716 73.27 241.7H64L124 301.7C132.999 310.68 145.192 315.723 157.905 315.723C170.618 315.723 182.811 310.68 191.81 301.7L251.93 241.57L246.13 241.53Z" fill="#32BCAD"/>
<path d="M73.28 74.09C79.3695 74.0737 85.4018 75.2646 91.0283 77.5938C96.6548 79.923 101.764 83.3443 106.06 87.66L153.57 135.18C155.221 136.826 157.458 137.751 159.79 137.751C162.122 137.751 164.359 136.826 166.01 135.18L213.35 87.84C217.643 83.5189 222.751 80.0934 228.378 77.7623C234.005 75.4311 240.039 74.2406 246.13 74.26H251.83L191.71 14.14C187.258 9.68647 181.972 6.15364 176.155 3.74332C170.337 1.33299 164.102 0.0923996 157.805 0.0923996C151.508 0.0923996 145.273 1.33299 139.455 3.74332C133.638 6.15364 128.352 9.68647 123.9 14.14L64 74.09H73.28Z" fill="#32BCAD"/>
<path d="M301.56 124.49L265.23 88.16C264.411 88.4949 263.535 88.6714 262.65 88.68H246.13C237.533 88.7015 229.293 92.1156 223.2 98.18L175.86 145.49C171.597 149.746 165.819 152.136 159.795 152.136C153.771 152.136 147.993 149.746 143.73 145.49L96.21 98C90.1187 91.9319 81.878 88.5142 73.28 88.49H53C52.1642 88.4712 51.3383 88.3053 50.56 88L14 124.49C5.02035 133.489 -0.0227661 145.682 -0.0227661 158.395C-0.0227661 171.108 5.02035 183.301 14 192.3L50.48 228.78C51.2566 228.469 52.0836 228.303 52.92 228.29H73.28C81.8778 228.265 90.1181 224.847 96.21 218.78L143.72 171.27C152.31 162.69 167.28 162.69 175.86 171.27L223.2 218.6C229.293 224.664 237.533 228.079 246.13 228.1H262.65C263.535 228.106 264.411 228.283 265.23 228.62L301.56 192.29C306.014 187.838 309.546 182.552 311.957 176.735C314.367 170.917 315.608 164.682 315.608 158.385C315.608 152.088 314.367 145.853 311.957 140.035C309.546 134.218 306.014 128.932 301.56 124.48" fill="#32BCAD"/>
</svg>
